<svg xmlns="http://www.w3.org/2000/svg" xmlns:xlink="http://www.w3.org/1999/xlink" width="145" zoomAndPan="magnify" viewBox="0 0 108.75 108.749999" height="145" preserveAspectRatio="xMidYMid meet" version="1.0"><defs><g/><clipPath id="e443e39437"><path d="M 0 0 L 108.152344 0 L 108.152344 108.152344 L 0 108.152344 Z M 0 0 " clip-rule="nonzero"/></clipPath><clipPath id="d970d85db6"><path d="M 54.074219 0 C 24.210938 0 0 24.210938 0 54.074219 C 0 83.941406 24.210938 108.152344 54.074219 108.152344 C 83.941406 108.152344 108.152344 83.941406 108.152344 54.074219 C 108.152344 24.210938 83.941406 0 54.074219 0 Z M 54.074219 0 " clip-rule="nonzero"/></clipPath><clipPath id="078429d67f"><path d="M 52 19 L 108.5 19 L 108.5 79 L 52 79 Z M 52 19 " clip-rule="nonzero"/></clipPath><clipPath id="b087562f99"><path d="M 59 26 L 108.5 26 L 108.5 92 L 59 92 Z M 59 26 " clip-rule="nonzero"/></clipPath><clipPath id="b966364243"><path d="M 28 81 L 80 81 L 80 97.886719 L 28 97.886719 Z M 28 81 " clip-rule="nonzero"/></clipPath><clipPath id="9709248943"><path d="M 24.265625 78.433594 L 33 78.433594 L 33 84 L 24.265625 84 Z M 24.265625 78.433594 " clip-rule="nonzero"/></clipPath><clipPath id="bfde11944a"><path d="M 76 78.433594 L 84 78.433594 L 84 84 L 76 84 Z M 76 78.433594 " clip-rule="nonzero"/></clipPath></defs><g clip-path="url(#e443e39437)"><g clip-path="url(#d970d85db6)"><path fill="#ffffff" d="M 0 0 L 108.152344 0 L 108.152344 108.152344 L 0 108.152344 Z M 0 0 " fill-opacity="1" fill-rule="nonzero"/></g></g><path stroke-linecap="butt" transform="matrix(0.737876, -0.124348, 0.124348, 0.737876, 39.841876, 21.424726)" fill="none" stroke-linejoin="miter" d="M 4.264691 8.729813 C 4.2067 9.953522 4.279423 11.029854 4.476845 11.96309 C 4.680283 12.892045 5.094253 13.671192 5.716211 14.284221 C 6.34245 14.903265 7.253891 15.369203 8.445388 15.681168 L 8.448827 20.435682 C 6.838343 20.222515 5.504674 19.748949 4.448687 19.009838 C 3.387552 18.26986 2.569686 17.311475 1.995956 16.129537 C 1.416211 14.951879 1.046188 13.597808 0.873857 12.075882 C 0.705807 10.559972 0.699358 8.90189 0.853641 7.106784 C 0.894872 6.61081 0.962823 6.050519 1.063511 5.421629 C 1.163331 4.797887 1.282063 4.156157 1.424857 3.497306 C 1.568519 2.833307 1.732714 2.204532 1.91831 1.605833 C 2.103906 1.007134 2.295345 0.499416 2.494363 0.0723843 L 6.290247 0.0715074 C 5.935358 0.7952 5.604242 1.660541 5.292621 2.661516 C 4.981 3.66249 4.742372 4.638708 4.586165 5.597051 C 5.068488 5.59363 5.528484 5.597035 5.961008 5.606397 C 6.394398 5.610612 6.758266 5.618992 7.053479 5.62639 C 7.343543 5.632921 7.510006 5.650386 7.552865 5.678784 L 7.552514 8.728019 C 7.536203 8.730565 7.505317 8.72536 7.464135 8.71842 C 7.422954 8.71148 7.301953 8.70697 7.105415 8.710907 C 6.904597 8.708828 6.586191 8.713403 6.145918 8.718617 C 5.704777 8.728978 5.079995 8.729567 4.264691 8.729813 Z M 4.264691 8.729813 " stroke="#320096" stroke-width="5.599991" stroke-opacity="1" stroke-miterlimit="4"/><path stroke-linecap="butt" transform="matrix(0.747849, -0.0253969, 0.0253969, 0.747849, 46.708922, 20.223227)" fill="none" stroke-linejoin="miter" d="M 9.08583 5.081902 C 10.026184 5.077273 10.748101 5.352509 11.256976 5.902568 C 11.771069 6.452805 12.096 7.189881 12.221158 8.118658 C 12.351356 9.05283 12.305309 10.101153 12.082838 11.268844 C 11.860544 12.431318 11.485177 13.640826 10.951873 14.886758 C 10.418747 16.127472 9.756251 17.332453 8.959169 18.501523 L 4.585911 18.541047 C 4.997407 17.959563 5.406166 17.30486 5.811834 16.587373 C 6.217502 15.869885 6.59222 15.140899 6.941207 14.400593 C 7.290193 13.660287 7.580726 12.949336 7.807766 12.262345 C 8.034982 11.570137 8.176242 10.948136 8.231544 10.396343 C 8.287023 9.839332 8.233904 9.403993 8.061929 9.084754 C 7.890132 8.760297 7.571798 8.59801 7.101709 8.597716 C 6.365184 8.59882 5.750941 8.84435 5.264021 9.339699 C 4.782495 9.830008 4.479322 10.451734 4.354502 11.204876 C 4.410791 11.854478 4.478933 12.462697 4.56432 13.024492 C 4.649708 13.586286 4.758268 14.080965 4.884784 14.50835 L 1.578336 14.510976 C 1.332727 13.745254 1.136476 12.756606 0.989581 11.545031 C 0.842687 10.333457 0.741961 8.992867 0.692619 7.52344 C 0.643455 6.048795 0.638156 4.51296 0.681938 2.916112 C 0.72572 1.319264 0.821321 -0.265377 0.968386 -1.827378 C 1.115452 -3.389379 1.311501 -4.855696 1.556533 -6.22633 L 5.886635 -6.225533 C 5.571041 -4.930421 5.298327 -3.513717 5.063277 -1.975598 C 4.828403 -0.442696 4.64464 1.123282 4.512163 2.717118 C 4.374647 4.305559 4.291252 5.838382 4.26702 7.320981 C 4.733701 6.652575 5.35822 6.104442 6.140578 5.676582 C 6.922758 5.25394 7.906366 5.052294 9.08583 5.081902 Z M 9.08583 5.081902 " stroke="#320096" stroke-width="5.599991" stroke-opacity="1" stroke-miterlimit="4"/><path stroke-linecap="butt" transform="matrix(0.741671, 0.0992322, -0.0992322, 0.741671, 57.896191, 19.977411)" fill="none" stroke-linejoin="miter" d="M 7.205255 1.947379 C 8.405741 1.944764 9.380711 2.146128 10.136031 2.555951 C 10.885485 2.961293 11.441816 3.49781 11.805718 4.170677 C 12.168234 4.833195 12.352095 5.577552 12.352126 6.404439 C 12.351171 7.342062 12.13006 8.130068 11.693273 8.762592 C 11.25062 9.390634 10.649571 9.897664 9.884261 10.279201 C 9.122741 10.649697 8.264588 10.927786 7.302551 11.098636 C 6.340514 11.269487 5.351185 11.354454 4.329391 11.354228 C 3.660498 11.354186 2.977796 11.329659 2.2799 11.270296 C 1.587178 11.210241 0.897553 11.133971 0.214815 11.030446 L 0.21178 7.386209 C 0.409128 7.444074 0.605784 7.496765 0.797265 7.550148 C 0.993228 7.597665 1.193673 7.639315 1.405159 7.684755 C 1.477788 6.574271 1.772979 5.592014 2.290041 4.73281 C 2.811584 3.867739 3.495348 3.191637 4.339948 2.694155 C 5.184547 2.196673 6.140682 1.942343 7.205255 1.947379 Z M 5.719595 8.282004 C 6.288101 8.279677 6.807598 8.225971 7.276701 8.110539 C 7.745805 7.995106 8.121045 7.807964 8.412769 7.547726 C 8.708976 7.281621 8.851633 6.930724 8.85109 6.49365 C 8.855028 6.05071 8.664788 5.691685 8.295892 5.414499 C 7.926995 5.137312 7.502275 4.993999 7.017941 4.995598 C 6.533607 4.997198 6.110744 5.143311 5.744175 5.43463 C 5.382781 5.725257 5.105595 6.094154 4.916405 6.530279 C 4.722734 6.97227 4.630142 7.421805 4.627588 7.875094 C 4.630029 7.932702 4.627296 7.991003 4.629737 8.048611 C 4.631485 8.101046 4.635311 8.169002 4.650177 8.240749 C 4.83612 8.252738 5.016889 8.26542 5.191791 8.27362 C 5.371868 8.281127 5.546078 8.284153 5.719595 8.282004 Z M 5.118889 11.82268 C 5.648073 12.589303 6.306904 13.222709 7.090208 13.723592 C 7.877993 14.218608 8.725029 14.526624 9.618889 14.633503 L 9.617328 18.794503 C 8.297763 18.655046 7.08398 18.24336 5.977363 17.569796 C 4.875921 16.895539 3.950329 16.03975 3.196106 15.008294 C 2.442576 13.982013 1.902537 12.858698 1.578065 11.653874 C 2.145222 11.720195 2.620956 11.772414 2.994919 11.811915 C 3.373364 11.845551 3.72386 11.867124 4.050199 11.865596 C 4.223717 11.863448 4.397235 11.861299 4.57006 11.853976 C 4.753234 11.845269 4.936408 11.836562 5.118889 11.82268 Z M 5.118889 11.82268 " stroke="#320096" stroke-width="5.599991" stroke-opacity="1" stroke-miterlimit="4"/><g fill="#ffffff" fill-opacity="1"><g transform="translate(41.70709, 32.492859)"><g><path d="M 2.359375 -5.15625 C 2.472656 -4.238281 2.660156 -3.453125 2.921875 -2.796875 C 3.191406 -2.140625 3.597656 -1.617188 4.140625 -1.234375 C 4.679688 -0.859375 5.398438 -0.625 6.296875 -0.53125 L 6.890625 2.953125 C 5.691406 3.003906 4.65625 2.820312 3.78125 2.40625 C 2.90625 1.988281 2.179688 1.378906 1.609375 0.578125 C 1.035156 -0.222656 0.59375 -1.171875 0.28125 -2.265625 C -0.0195312 -3.367188 -0.234375 -4.59375 -0.359375 -5.9375 C -0.390625 -6.300781 -0.40625 -6.71875 -0.40625 -7.1875 C -0.414062 -7.664062 -0.40625 -8.15625 -0.375 -8.65625 C -0.34375 -9.164062 -0.296875 -9.648438 -0.234375 -10.109375 C -0.179688 -10.566406 -0.113281 -10.972656 -0.03125 -11.328125 L 2.78125 -11.796875 C 2.613281 -11.222656 2.476562 -10.546875 2.375 -9.765625 C 2.269531 -8.984375 2.21875 -8.234375 2.21875 -7.515625 C 2.5625 -7.566406 2.894531 -7.617188 3.21875 -7.671875 C 3.550781 -7.722656 3.820312 -7.757812 4.03125 -7.78125 C 4.25 -7.8125 4.375 -7.820312 4.40625 -7.8125 L 4.78125 -5.5625 C 4.769531 -5.5625 4.75 -5.5625 4.71875 -5.5625 C 4.6875 -5.5625 4.597656 -5.546875 4.453125 -5.515625 C 4.304688 -5.492188 4.066406 -5.453125 3.734375 -5.390625 C 3.410156 -5.335938 2.953125 -5.257812 2.359375 -5.15625 Z M 2.359375 -5.15625 "/></g></g></g><g fill="#ffffff" fill-opacity="1"><g transform="translate(47.089876, 31.440957)"><g><path d="M 6.546875 -7.65625 C 7.242188 -7.675781 7.789062 -7.488281 8.1875 -7.09375 C 8.59375 -6.695312 8.851562 -6.148438 8.96875 -5.453125 C 9.082031 -4.753906 9.070312 -3.96875 8.9375 -3.09375 C 8.8125 -2.21875 8.5625 -1.304688 8.1875 -0.359375 C 7.820312 0.585938 7.359375 1.5 6.796875 2.375 L 3.53125 2.53125 C 3.8125 2.09375 4.09375 1.597656 4.375 1.046875 C 4.664062 0.503906 4.929688 -0.046875 5.171875 -0.609375 C 5.410156 -1.179688 5.609375 -1.726562 5.765625 -2.25 C 5.921875 -2.769531 6.007812 -3.238281 6.03125 -3.65625 C 6.0625 -4.070312 6.007812 -4.394531 5.875 -4.625 C 5.75 -4.863281 5.507812 -4.976562 5.15625 -4.96875 C 4.601562 -4.945312 4.148438 -4.742188 3.796875 -4.359375 C 3.441406 -3.984375 3.226562 -3.515625 3.15625 -2.953125 C 3.207031 -2.460938 3.273438 -2.007812 3.359375 -1.59375 C 3.441406 -1.175781 3.535156 -0.804688 3.640625 -0.484375 L 1.171875 -0.40625 C 0.960938 -0.976562 0.785156 -1.710938 0.640625 -2.609375 C 0.503906 -3.503906 0.398438 -4.503906 0.328125 -5.609375 C 0.253906 -6.710938 0.210938 -7.859375 0.203125 -9.046875 C 0.191406 -10.242188 0.222656 -11.425781 0.296875 -12.59375 C 0.367188 -13.769531 0.484375 -14.875 0.640625 -15.90625 L 3.875 -16.015625 C 3.664062 -15.035156 3.492188 -13.96875 3.359375 -12.8125 C 3.222656 -11.664062 3.125 -10.492188 3.0625 -9.296875 C 3 -8.109375 2.976562 -6.960938 3 -5.859375 C 3.332031 -6.367188 3.785156 -6.789062 4.359375 -7.125 C 4.929688 -7.46875 5.660156 -7.644531 6.546875 -7.65625 Z M 6.546875 -7.65625 "/></g></g></g><g fill="#ffffff" fill-opacity="1"><g transform="translate(56.407708, 31.102473)"><g><path d="M 6.640625 -8.953125 C 7.523438 -8.835938 8.222656 -8.59375 8.734375 -8.21875 C 9.253906 -7.851562 9.613281 -7.40625 9.8125 -6.875 C 10.019531 -6.34375 10.082031 -5.765625 10 -5.140625 C 9.914062 -4.453125 9.675781 -3.894531 9.28125 -3.46875 C 8.894531 -3.039062 8.398438 -2.722656 7.796875 -2.515625 C 7.191406 -2.304688 6.523438 -2.1875 5.796875 -2.15625 C 5.078125 -2.132812 4.332031 -2.175781 3.5625 -2.28125 C 3.070312 -2.34375 2.566406 -2.425781 2.046875 -2.53125 C 1.535156 -2.644531 1.035156 -2.773438 0.546875 -2.921875 L 0.90625 -5.625 C 1.0625 -5.5625 1.207031 -5.5 1.34375 -5.4375 C 1.476562 -5.382812 1.613281 -5.332031 1.75 -5.28125 C 1.914062 -6.09375 2.234375 -6.789062 2.703125 -7.375 C 3.179688 -7.96875 3.757812 -8.40625 4.4375 -8.6875 C 5.125 -8.96875 5.859375 -9.054688 6.640625 -8.953125 Z M 4.921875 -4.421875 C 5.328125 -4.359375 5.710938 -4.34375 6.078125 -4.375 C 6.441406 -4.414062 6.742188 -4.519531 6.984375 -4.6875 C 7.222656 -4.863281 7.363281 -5.109375 7.40625 -5.421875 C 7.445312 -5.753906 7.347656 -6.039062 7.109375 -6.28125 C 6.867188 -6.53125 6.566406 -6.675781 6.203125 -6.71875 C 5.835938 -6.769531 5.503906 -6.703125 5.203125 -6.515625 C 4.910156 -6.335938 4.671875 -6.097656 4.484375 -5.796875 C 4.304688 -5.492188 4.191406 -5.171875 4.140625 -4.828125 C 4.140625 -4.785156 4.132812 -4.742188 4.125 -4.703125 C 4.125 -4.660156 4.125 -4.609375 4.125 -4.546875 C 4.257812 -4.523438 4.390625 -4.5 4.515625 -4.46875 C 4.648438 -4.445312 4.785156 -4.429688 4.921875 -4.421875 Z M 4.109375 -1.859375 C 4.421875 -1.222656 4.84375 -0.679688 5.375 -0.234375 C 5.914062 0.203125 6.507812 0.507812 7.15625 0.6875 L 6.75 3.765625 C 5.789062 3.535156 4.929688 3.113281 4.171875 2.5 C 3.421875 1.882812 2.816406 1.15625 2.359375 0.3125 C 1.910156 -0.519531 1.625 -1.398438 1.5 -2.328125 C 1.914062 -2.222656 2.257812 -2.132812 2.53125 -2.0625 C 2.8125 -2 3.070312 -1.953125 3.3125 -1.921875 C 3.4375 -1.910156 3.566406 -1.894531 3.703125 -1.875 C 3.835938 -1.863281 3.972656 -1.859375 4.109375 -1.859375 Z M 4.109375 -1.859375 "/></g></g></g><path stroke-linecap="butt" transform="matrix(0.716209, -0.21672, 0.21672, 0.716209, 34.495563, 62.24659)" fill="none" stroke-linejoin="miter" d="M -1.625988 12.117094 L 1.667109 12.120923 C 1.63569 12.296854 1.617288 12.465816 1.596913 12.623272 C 1.580023 12.787237 1.569641 12.947718 1.569252 13.111222 C 1.570001 13.847748 1.716299 14.355612 2.019649 14.632842 C 2.316492 14.913557 2.644163 15.05634 2.987673 15.056657 C 3.314682 15.057434 3.605462 14.943622 3.858501 14.720216 C 4.118049 14.493326 4.24459 14.057113 4.243121 13.413088 C 4.245079 13.01008 4.188 12.621932 4.073395 12.243647 C 3.960303 11.860366 3.779361 11.412921 3.5236 10.888296 C 3.267839 10.363671 2.907409 9.698293 2.448819 8.888677 C 2.11173 8.290356 1.810669 7.681121 1.540638 7.059459 C 1.277115 6.434312 1.059023 5.839275 0.891357 5.275858 C 0.731711 4.70396 0.653854 4.222259 0.6543 3.824247 C 0.653018 2.891214 0.865868 2.115695 1.284831 1.506171 C 1.710302 0.893163 2.257404 0.436949 2.924625 0.142526 C 3.593359 -0.156894 4.281229 -0.303264 4.99126 -0.306576 C 5.836788 -0.307066 6.598369 -0.12025 7.276001 0.253873 C 7.960142 0.624512 8.495841 1.179303 8.88612 1.908254 C 9.281397 2.638718 9.478265 3.538215 9.476725 4.606746 C 9.474565 4.884249 9.459388 5.168722 9.418177 5.467134 L 6.129616 5.448316 C 6.204089 5.03998 6.243457 4.675562 6.244695 4.365054 C 6.241584 3.780528 6.140587 3.357274 5.93171 3.092269 C 5.726318 2.833773 5.483128 2.70019 5.199116 2.701515 C 4.959612 2.699946 4.714852 2.805867 4.458328 3.022764 C 4.204828 3.229669 4.073881 3.62637 4.075479 4.215893 C 4.07306 4.6024 4.148945 5.072595 4.298137 5.624968 C 4.447329 6.17734 4.701909 6.777965 5.066875 7.428353 C 5.763932 8.675551 6.318782 9.797906 6.736421 10.796931 C 7.155571 11.79096 7.361842 12.73148 7.366738 13.616521 C 7.366047 14.538049 7.145177 15.322049 6.697617 15.972006 C 6.256566 16.618478 5.693884 17.108157 5.006086 17.434532 C 4.321772 17.767416 3.611353 17.934233 2.881336 17.931497 C 2.128308 17.932707 1.408212 17.752989 0.706058 17.387808 C 0.0123845 17.030648 -0.560853 16.491768 -1.007146 15.767683 C -1.458436 15.042087 -1.685283 14.133518 -1.686177 13.036981 C -1.682966 12.737979 -1.661741 12.43352 -1.625988 12.117094 Z M -1.625988 12.117094 " stroke="#320096" stroke-width="4.579565" stroke-opacity="1" stroke-miterlimit="4"/><path stroke-linecap="butt" transform="matrix(0.735773, -0.136238, 0.136238, 0.735773, 41.299889, 60.274472)" fill="none" stroke-linejoin="miter" d="M 3.734438 7.506887 C 3.690354 8.57646 3.748928 9.521698 3.92651 10.340318 C 4.09991 11.152854 4.461898 11.83573 5.010193 12.372596 C 5.557538 12.914595 6.352787 13.321989 7.401072 13.595729 L 7.399258 17.762992 C 5.994894 17.577282 4.824744 17.158869 3.898123 16.514788 C 2.967319 15.864623 2.251909 15.026052 1.74866 13.987859 C 1.24446 12.954799 0.916301 11.773828 0.765134 10.439813 C 0.6191 9.106748 0.611655 7.656001 0.748883 6.083388 C 0.786707 5.649741 0.846201 5.156398 0.93155 4.609443 C 1.016899 4.062488 1.126582 3.498803 1.249383 2.921619 C 1.373134 2.339302 1.517798 1.787403 1.678242 1.264971 C 1.843819 0.743489 2.012439 0.291589 2.187334 -0.0795142 L 5.510879 -0.079964 C 5.20253 0.553117 4.908252 1.310911 4.634128 2.189236 C 4.360004 3.06756 4.159264 3.92231 4.019739 4.761849 C 4.44464 4.760889 4.842925 4.760311 5.223911 4.767147 C 5.604896 4.773983 5.922384 4.77968 6.176374 4.784237 C 6.434547 4.794878 6.581123 4.806091 6.618386 4.834227 L 6.617682 7.504545 C 6.606465 7.507778 6.5808 7.503025 6.539735 7.495422 C 6.503804 7.488768 6.397341 7.490292 6.222248 7.489725 C 6.052287 7.490109 5.770731 7.491065 5.381761 7.498678 C 4.998875 7.502108 4.451161 7.506872 3.734438 7.506887 Z M 3.734438 7.506887 " stroke="#320096" stroke-width="4.579565" stroke-opacity="1" stroke-miterlimit="4"/><path stroke-linecap="butt" transform="matrix(0.747098, -0.0420364, 0.0420364, 0.747098, 47.248775, 59.15188)" fill="none" stroke-linejoin="miter" d="M 9.868845 8.811806 C 9.870071 9.533417 9.664281 10.217237 9.25698 10.858347 C 8.854891 11.499751 8.302599 12.022903 7.595185 12.422299 C 6.893276 12.816776 6.086966 13.022379 5.176547 13.033896 C 5.16583 13.038521 5.150487 13.03243 5.146155 13.0165 C 5.141529 13.005783 5.13661 13.000277 5.13661 13.000277 C 5.126186 12.999691 5.120681 13.00461 5.119801 13.020246 C 5.119215 13.03067 5.118921 13.035882 5.118921 13.035882 C 4.522693 13.038934 3.943048 12.93312 3.374187 12.72857 C 2.805325 12.52402 2.298782 12.23409 1.849345 11.858488 C 1.399908 11.482886 1.043182 11.039301 0.774248 10.522227 C 0.510526 10.005446 0.375412 9.433159 0.373826 8.81087 C 0.373773 8.068411 0.579856 7.379379 0.991782 6.748987 C 1.398497 6.1183 1.965545 5.611664 2.676999 5.23341 C 3.393664 4.855449 4.209812 4.660856 5.11935 4.664976 L 5.140199 4.666149 C 5.140199 4.666149 5.145704 4.66123 5.156128 4.661816 C 5.171764 4.662696 5.176976 4.662989 5.176976 4.662989 C 6.034394 4.664176 6.819003 4.844266 7.530509 5.208471 C 8.242309 5.567463 8.810677 6.059557 9.230401 6.684458 C 9.655631 7.30444 9.872018 8.012015 9.868845 8.811806 Z M 5.13965 10.344338 C 5.688677 10.343858 6.119945 10.206039 6.428536 9.925374 C 6.737128 9.644709 6.904474 9.27244 6.919857 8.813192 C 6.918431 8.373912 6.755364 8.019652 6.436162 7.745492 C 6.122172 7.471625 5.690517 7.337538 5.136279 7.337724 C 4.592465 7.338497 4.155984 7.476024 3.826838 7.750303 C 3.508409 8.019957 3.347155 8.376884 3.343662 8.810658 C 3.344502 9.260362 3.506689 9.630258 3.830516 9.915136 C 4.154344 10.200013 4.590624 10.344818 5.13965 10.344338 Z M 5.13965 10.344338 " stroke="#320096" stroke-width="4.579565" stroke-opacity="1" stroke-miterlimit="4"/><path stroke-linecap="butt" transform="matrix(0.744188, 0.0781443, -0.0781443, 0.744188, 56.376659, 58.723198)" fill="none" stroke-linejoin="miter" d="M 7.866854 4.306735 C 8.701612 4.308313 9.360059 4.580358 9.837004 5.123414 C 10.31914 5.665924 10.626082 6.389551 10.76302 7.293748 C 10.899413 8.192753 10.862817 9.193908 10.652687 10.292019 L 7.083037 10.288926 C 7.22007 9.744387 7.293972 9.248469 7.306378 8.816747 C 7.318238 8.379834 7.250016 8.030065 7.102257 7.772632 C 6.949851 7.520937 6.689483 7.390806 6.317052 7.393171 C 5.791879 7.390578 5.334148 7.580366 4.943859 7.962534 C 4.548379 8.345248 4.248505 8.838649 4.034401 9.44902 C 3.825488 10.058846 3.736245 10.708596 3.77132 11.392533 C 3.900131 12.019386 4.06692 12.657998 4.27797 13.318208 L 1.517118 13.319419 C 0.940459 11.626803 0.570899 10.006922 0.40844 8.459777 C 0.251172 6.912086 0.311387 5.436041 0.59947 4.03055 L 4.22623 4.027647 C 4.061082 4.454411 3.924074 4.899217 3.820943 5.36671 C 3.717266 5.829011 3.63189 6.315636 3.568372 6.810464 C 3.969406 6.080733 4.513862 5.467166 5.20857 4.984795 C 5.913115 4.496142 6.797661 4.272034 7.866854 4.306735 Z M 7.866854 4.306735 " stroke="#320096" stroke-width="4.579565" stroke-opacity="1" stroke-miterlimit="4"/><path stroke-linecap="butt" transform="matrix(0.720855, 0.200725, -0.200725, 0.720855, 66.114312, 59.86423)" fill="none" stroke-linejoin="miter" d="M 6.313185 1.562548 C 7.364426 1.562448 8.220169 1.736001 8.878188 2.094664 C 9.541236 2.451927 10.029987 2.922751 10.34444 3.507135 C 10.665322 4.095148 10.82445 4.744459 10.824622 5.465127 C 10.821227 6.289746 10.629409 6.98259 10.246367 7.5336 C 9.858297 8.08601 9.331837 8.530644 8.66056 8.863874 C 7.992911 9.190675 7.241937 9.4323 6.394779 9.581491 C 5.559079 9.732911 4.690915 9.806668 3.791689 9.807791 C 3.206548 9.808157 2.607977 9.779751 1.998776 9.732629 C 1.388174 9.680477 0.783429 9.610439 0.184541 9.522512 L 0.189525 6.329386 C 0.360571 6.379298 0.530218 6.424181 0.699864 6.469064 C 0.86951 6.513947 1.047814 6.551 1.231147 6.586653 C 1.297885 5.61976 1.556102 4.756698 2.007199 4.002495 C 2.463324 3.246892 3.061784 2.652155 3.802578 2.218284 C 4.541972 1.779384 5.380984 1.562015 6.313185 1.562548 Z M 5.008063 7.111861 C 5.507138 7.113784 5.964264 7.06236 6.375812 6.96402 C 6.785961 6.860651 7.119785 6.69725 7.375885 6.46879 C 7.631985 6.24033 7.756698 5.929238 7.757854 5.544174 C 7.75901 5.15911 7.594782 4.841772 7.26797 4.602221 C 6.944787 4.35624 6.574176 4.231843 6.152508 4.235461 C 5.724411 4.23545 5.352839 4.360591 5.034163 4.617314 C 4.715486 4.874036 4.474534 5.195819 4.304877 5.579033 C 4.141649 5.965876 4.055829 6.358259 4.058874 6.75841 C 4.05639 6.807872 4.058935 6.855934 4.057852 6.910424 C 4.055368 6.959886 4.064342 7.011576 4.077517 7.078353 C 4.237361 7.088034 4.392176 7.099114 4.55062 7.103765 C 4.709063 7.108416 4.862478 7.114467 5.008063 7.111861 Z M 4.485227 10.216172 C 4.948955 10.889044 5.52606 11.443643 6.216542 11.87997 C 6.907024 12.316296 7.642389 12.582977 8.427666 12.67861 L 8.429673 16.324978 C 7.268817 16.203872 6.204218 15.844625 5.237275 15.252266 C 4.275361 14.658508 3.461455 13.915158 2.802814 13.009358 C 2.139143 12.104958 1.671031 11.124429 1.381989 10.066942 C 1.881381 10.128385 2.295536 10.175629 2.624454 10.208676 C 2.957 10.235293 3.265229 10.252425 3.55277 10.253642 C 3.698355 10.251036 3.850369 10.252058 4.006012 10.246651 C 4.166684 10.239844 4.325956 10.228008 4.485227 10.216172 Z M 4.485227 10.216172 " stroke="#320096" stroke-width="4.579565" stroke-opacity="1" stroke-miterlimit="4"/><g fill="#ffffff" fill-opacity="1"><g transform="translate(37.312921, 71.557305)"><g><path d="M -1.359375 -0.265625 L 1.015625 -0.984375 C 1.023438 -0.867188 1.039062 -0.75 1.0625 -0.625 C 1.082031 -0.5 1.109375 -0.378906 1.140625 -0.265625 C 1.304688 0.265625 1.523438 0.597656 1.796875 0.734375 C 2.066406 0.867188 2.328125 0.898438 2.578125 0.828125 C 2.804688 0.753906 2.988281 0.609375 3.125 0.390625 C 3.257812 0.171875 3.257812 -0.164062 3.125 -0.625 C 3.03125 -0.914062 2.898438 -1.179688 2.734375 -1.421875 C 2.578125 -1.671875 2.351562 -1.953125 2.0625 -2.265625 C 1.769531 -2.585938 1.367188 -2.992188 0.859375 -3.484375 C 0.484375 -3.835938 0.140625 -4.207031 -0.171875 -4.59375 C -0.492188 -4.976562 -0.773438 -5.351562 -1.015625 -5.71875 C -1.265625 -6.09375 -1.429688 -6.421875 -1.515625 -6.703125 C -1.722656 -7.378906 -1.738281 -7.984375 -1.5625 -8.515625 C -1.394531 -9.046875 -1.101562 -9.488281 -0.6875 -9.84375 C -0.269531 -10.195312 0.191406 -10.453125 0.703125 -10.609375 C 1.304688 -10.796875 1.890625 -10.828125 2.453125 -10.703125 C 3.015625 -10.585938 3.515625 -10.304688 3.953125 -9.859375 C 4.398438 -9.421875 4.742188 -8.820312 4.984375 -8.0625 C 5.035156 -7.863281 5.078125 -7.660156 5.109375 -7.453125 L 2.75 -6.734375 C 2.71875 -7.046875 2.664062 -7.3125 2.59375 -7.53125 C 2.46875 -7.957031 2.300781 -8.238281 2.09375 -8.375 C 1.882812 -8.519531 1.679688 -8.5625 1.484375 -8.5 C 1.316406 -8.445312 1.164062 -8.316406 1.03125 -8.109375 C 0.894531 -7.898438 0.890625 -7.585938 1.015625 -7.171875 C 1.097656 -6.890625 1.253906 -6.566406 1.484375 -6.203125 C 1.710938 -5.847656 2.03125 -5.476562 2.4375 -5.09375 C 3.195312 -4.34375 3.832031 -3.65625 4.34375 -3.03125 C 4.863281 -2.414062 5.222656 -1.785156 5.421875 -1.140625 C 5.617188 -0.484375 5.628906 0.117188 5.453125 0.671875 C 5.273438 1.234375 4.972656 1.707031 4.546875 2.09375 C 4.128906 2.476562 3.65625 2.75 3.125 2.90625 C 2.582031 3.070312 2.023438 3.097656 1.453125 2.984375 C 0.878906 2.878906 0.351562 2.617188 -0.125 2.203125 C -0.613281 1.785156 -0.972656 1.179688 -1.203125 0.390625 C -1.273438 0.171875 -1.328125 -0.046875 -1.359375 -0.265625 Z M -1.359375 -0.265625 "/></g></g></g><g fill="#ffffff" fill-opacity="1"><g transform="translate(43.070987, 69.839519)"><g><path d="M 2 -4.5625 C 2.101562 -3.757812 2.273438 -3.066406 2.515625 -2.484375 C 2.753906 -1.910156 3.113281 -1.460938 3.59375 -1.140625 C 4.070312 -0.816406 4.710938 -0.617188 5.515625 -0.546875 L 6.09375 2.5 C 5.03125 2.550781 4.113281 2.398438 3.34375 2.046875 C 2.570312 1.703125 1.925781 1.179688 1.40625 0.484375 C 0.894531 -0.210938 0.492188 -1.035156 0.203125 -1.984375 C -0.078125 -2.941406 -0.273438 -4.007812 -0.390625 -5.1875 C -0.429688 -5.507812 -0.453125 -5.878906 -0.453125 -6.296875 C -0.460938 -6.710938 -0.457031 -7.140625 -0.4375 -7.578125 C -0.425781 -8.023438 -0.398438 -8.453125 -0.359375 -8.859375 C -0.316406 -9.273438 -0.253906 -9.632812 -0.171875 -9.9375 L 2.28125 -10.390625 C 2.132812 -9.867188 2.019531 -9.265625 1.9375 -8.578125 C 1.851562 -7.898438 1.816406 -7.242188 1.828125 -6.609375 C 2.140625 -6.671875 2.429688 -6.722656 2.703125 -6.765625 C 2.984375 -6.804688 3.21875 -6.84375 3.40625 -6.875 C 3.601562 -6.90625 3.722656 -6.914062 3.765625 -6.90625 L 4.125 -4.953125 C 4.113281 -4.953125 4.09375 -4.953125 4.0625 -4.953125 C 4.039062 -4.953125 3.960938 -4.9375 3.828125 -4.90625 C 3.703125 -4.882812 3.492188 -4.84375 3.203125 -4.78125 C 2.921875 -4.726562 2.519531 -4.65625 2 -4.5625 Z M 2 -4.5625 "/></g></g></g><g fill="#ffffff" fill-opacity="1"><g transform="translate(47.795249, 68.864155)"><g><path d="M 7.203125 -3.546875 C 7.234375 -3.015625 7.109375 -2.492188 6.828125 -1.984375 C 6.546875 -1.484375 6.148438 -1.070312 5.640625 -0.75 C 5.140625 -0.425781 4.550781 -0.238281 3.875 -0.1875 C 3.863281 -0.1875 3.851562 -0.191406 3.84375 -0.203125 C 3.84375 -0.210938 3.84375 -0.21875 3.84375 -0.21875 C 3.832031 -0.21875 3.828125 -0.210938 3.828125 -0.203125 C 3.828125 -0.191406 3.828125 -0.1875 3.828125 -0.1875 C 3.378906 -0.15625 2.9375 -0.207031 2.5 -0.34375 C 2.070312 -0.476562 1.679688 -0.671875 1.328125 -0.921875 C 0.972656 -1.179688 0.6875 -1.5 0.46875 -1.875 C 0.25 -2.257812 0.128906 -2.679688 0.109375 -3.140625 C 0.078125 -3.703125 0.203125 -4.222656 0.484375 -4.703125 C 0.765625 -5.191406 1.164062 -5.59375 1.6875 -5.90625 C 2.207031 -6.21875 2.804688 -6.394531 3.484375 -6.4375 L 3.5 -6.4375 C 3.5 -6.4375 3.503906 -6.4375 3.515625 -6.4375 C 3.523438 -6.4375 3.53125 -6.4375 3.53125 -6.4375 C 4.175781 -6.46875 4.769531 -6.363281 5.3125 -6.125 C 5.851562 -5.882812 6.296875 -5.546875 6.640625 -5.109375 C 6.984375 -4.671875 7.171875 -4.148438 7.203125 -3.546875 Z M 3.734375 -2.203125 C 4.148438 -2.222656 4.460938 -2.34375 4.671875 -2.5625 C 4.890625 -2.789062 4.992188 -3.078125 4.984375 -3.421875 C 4.960938 -3.753906 4.832031 -4.015625 4.59375 -4.203125 C 4.351562 -4.390625 4.023438 -4.472656 3.609375 -4.453125 C 3.203125 -4.429688 2.878906 -4.3125 2.640625 -4.09375 C 2.410156 -3.875 2.304688 -3.597656 2.328125 -3.265625 C 2.347656 -2.929688 2.484375 -2.664062 2.734375 -2.46875 C 2.992188 -2.269531 3.328125 -2.179688 3.734375 -2.203125 Z M 3.734375 -2.203125 "/></g></g></g><g fill="#ffffff" fill-opacity="1"><g transform="translate(55.360783, 68.397644)"><g><path d="M 6.53125 -5.859375 C 7.15625 -5.785156 7.625 -5.523438 7.9375 -5.078125 C 8.25 -4.640625 8.421875 -4.082031 8.453125 -3.40625 C 8.484375 -2.726562 8.378906 -1.988281 8.140625 -1.1875 L 5.484375 -1.46875 C 5.628906 -1.863281 5.722656 -2.222656 5.765625 -2.546875 C 5.804688 -2.867188 5.78125 -3.132812 5.6875 -3.34375 C 5.59375 -3.550781 5.410156 -3.664062 5.140625 -3.6875 C 4.753906 -3.726562 4.398438 -3.617188 4.078125 -3.359375 C 3.753906 -3.109375 3.488281 -2.757812 3.28125 -2.3125 C 3.070312 -1.875 2.957031 -1.40625 2.9375 -0.90625 C 2.976562 -0.425781 3.050781 0.0625 3.15625 0.5625 L 1.09375 0.359375 C 0.800781 -0.953125 0.65625 -2.1875 0.65625 -3.34375 C 0.65625 -4.5 0.820312 -5.597656 1.15625 -6.640625 L 3.84375 -6.359375 C 3.695312 -6.046875 3.5625 -5.71875 3.4375 -5.375 C 3.320312 -5.039062 3.222656 -4.6875 3.140625 -4.3125 C 3.492188 -4.832031 3.945312 -5.25 4.5 -5.5625 C 5.0625 -5.875 5.738281 -5.972656 6.53125 -5.859375 Z M 6.53125 -5.859375 "/></g></g></g><g fill="#ffffff" fill-opacity="1"><g transform="translate(63.504893, 69.235349)"><g><path d="M 6.859375 -6.984375 C 7.609375 -6.773438 8.1875 -6.472656 8.59375 -6.078125 C 9 -5.691406 9.253906 -5.253906 9.359375 -4.765625 C 9.472656 -4.285156 9.457031 -3.785156 9.3125 -3.265625 C 9.144531 -2.671875 8.867188 -2.210938 8.484375 -1.890625 C 8.097656 -1.566406 7.628906 -1.351562 7.078125 -1.25 C 6.535156 -1.15625 5.941406 -1.132812 5.296875 -1.1875 C 4.660156 -1.238281 4.019531 -1.351562 3.375 -1.53125 C 2.957031 -1.644531 2.53125 -1.78125 2.09375 -1.9375 C 1.664062 -2.101562 1.25 -2.28125 0.84375 -2.46875 L 1.484375 -4.78125 C 1.585938 -4.695312 1.695312 -4.625 1.8125 -4.5625 C 1.925781 -4.507812 2.046875 -4.445312 2.171875 -4.375 C 2.421875 -5.0625 2.78125 -5.628906 3.25 -6.078125 C 3.726562 -6.523438 4.273438 -6.832031 4.890625 -7 C 5.515625 -7.175781 6.171875 -7.171875 6.859375 -6.984375 Z M 4.796875 -3.25 C 5.160156 -3.144531 5.5 -3.082031 5.8125 -3.0625 C 6.125 -3.050781 6.390625 -3.101562 6.609375 -3.21875 C 6.835938 -3.332031 6.992188 -3.53125 7.078125 -3.8125 C 7.148438 -4.09375 7.097656 -4.351562 6.921875 -4.59375 C 6.742188 -4.84375 6.5 -5.007812 6.1875 -5.09375 C 5.882812 -5.175781 5.59375 -5.15625 5.3125 -5.03125 C 5.03125 -4.914062 4.789062 -4.734375 4.59375 -4.484375 C 4.394531 -4.242188 4.253906 -3.976562 4.171875 -3.6875 C 4.160156 -3.644531 4.148438 -3.601562 4.140625 -3.5625 C 4.128906 -3.53125 4.125 -3.5 4.125 -3.46875 C 4.238281 -3.414062 4.351562 -3.375 4.46875 -3.34375 C 4.582031 -3.3125 4.691406 -3.28125 4.796875 -3.25 Z M 3.796875 -1.09375 C 3.992188 -0.519531 4.296875 -0.0078125 4.703125 0.4375 C 5.109375 0.894531 5.585938 1.238281 6.140625 1.46875 L 5.40625 4.078125 C 4.59375 3.765625 3.898438 3.296875 3.328125 2.671875 C 2.753906 2.054688 2.316406 1.351562 2.015625 0.5625 C 1.722656 -0.21875 1.582031 -1.019531 1.59375 -1.84375 C 1.925781 -1.695312 2.207031 -1.578125 2.4375 -1.484375 C 2.675781 -1.398438 2.898438 -1.328125 3.109375 -1.265625 C 3.210938 -1.234375 3.320312 -1.203125 3.4375 -1.171875 C 3.550781 -1.148438 3.671875 -1.125 3.796875 -1.09375 Z M 3.796875 -1.09375 "/></g></g></g><path stroke-linecap="butt" transform="matrix(0.665013, -0.343046, 0.343046, 0.665013, 9.661562, 51.429834)" fill="none" stroke-linejoin="miter" d="M 12.474119 9.371521 C 12.505419 9.48165 12.518013 9.593878 12.516543 9.710598 C 12.517465 9.822679 12.515995 9.939399 12.516917 10.05148 C 12.518923 11.004095 12.267714 11.855458 11.765684 12.600931 C 11.259014 13.344011 10.588454 13.937935 9.749511 14.368637 C 8.908176 14.803979 7.985537 15.021163 6.974562 15.022433 C 5.354249 15.020696 3.904402 14.460761 2.627417 13.337987 C 2.465453 13.777219 2.352276 14.235744 2.269181 14.715661 C 2.195513 15.188693 2.154467 15.666805 2.157716 16.150145 C 2.153425 17.046645 2.272887 17.94237 2.516102 18.83732 C 2.759316 19.732269 3.098889 20.577068 3.539606 21.362436 C 3.982568 22.154837 4.489707 22.856991 5.056383 23.466503 L -0.084834 23.469435 C -0.570474 22.543413 -0.910969 21.586534 -1.110959 20.596403 C -1.308702 19.613305 -1.406184 18.64081 -1.40819 17.688195 C -1.404821 16.679614 -1.322583 15.711717 -1.149802 14.784653 C -0.979415 13.862228 -0.753944 13.015209 -0.470994 12.238959 C -0.183405 11.465101 0.116778 10.803472 0.429409 10.265743 C 0.14345 9.613071 -0.0902982 8.89335 -0.274377 8.122889 C -0.460702 7.345395 -0.587932 6.510276 -0.660706 5.615139 L 3.030238 5.827413 C 3.115231 6.493895 3.295553 7.191931 3.573597 7.916881 C 3.851641 8.64183 4.191026 9.316187 4.596392 9.942346 C 5.001758 10.568504 5.441365 11.07135 5.917459 11.457918 C 6.393552 11.844485 6.881425 12.037414 7.381076 12.036705 C 7.880727 12.035996 8.342782 11.869045 8.76724 11.53585 C 9.191698 11.202655 9.402597 10.771044 9.404575 10.243409 C 9.405965 9.762462 9.249803 9.370587 8.947614 9.079602 C 8.640785 8.786223 8.238668 8.643405 7.746049 8.641868 C 7.330495 8.638967 6.88788 8.745459 6.411319 8.95192 C 5.934758 9.15838 5.48979 9.451625 5.078662 9.838688 C 4.808026 9.452374 4.565961 9.02206 4.347829 8.545352 C 4.134336 8.071037 3.972612 7.564687 3.858017 7.02391 C 4.488815 6.620937 5.14896 6.297716 5.843238 6.044968 C 6.53991 5.787581 7.21626 5.660686 7.870041 5.65725 C 8.668526 5.657971 9.39028 5.818825 10.042336 6.137566 C 10.701426 6.454061 11.242177 6.897478 11.674015 7.460931 C 12.108248 8.019744 12.378042 8.658203 12.474119 9.371521 Z M 12.474119 9.371521 " stroke="#320096" stroke-width="5.226658" stroke-opacity="1" stroke-miterlimit="4"/><path stroke-linecap="butt" transform="matrix(0.70212, -0.258747, 0.258747, 0.70212, 19.261234, 46.559504)" fill="none" stroke-linejoin="miter" d="M 8.976837 5.081625 C 9.934869 5.078616 10.681466 5.392698 11.226942 6.010981 C 11.777317 6.631069 12.129673 7.456359 12.284011 8.486849 C 12.438349 9.51734 12.397772 10.654032 12.158668 11.906722 L 8.080847 11.906101 C 8.239199 11.280146 8.32278 10.721216 8.338293 10.226217 C 8.355611 9.72632 8.27392 9.329024 8.103016 9.037938 C 7.932112 8.746853 7.636156 8.598842 7.20664 8.601898 C 6.612125 8.599782 6.086683 8.817845 5.638825 9.248094 C 5.194059 9.685047 4.845962 10.252204 4.606134 10.948276 C 4.361408 11.642544 4.267241 12.381168 4.305327 13.168531 C 4.449897 13.878302 4.641644 14.611022 4.887272 15.363599 L 1.72778 15.362029 C 1.071561 13.428892 0.650459 11.582401 0.46628 9.817657 C 0.287 8.054719 0.356243 6.37224 0.68252 4.76223 L 4.821442 4.763114 C 4.632939 5.244433 4.478206 5.754888 4.359049 6.289581 C 4.241697 6.819375 4.145226 7.367992 4.074535 7.937236 C 4.526812 7.102479 5.151554 6.403605 5.945151 5.85041 C 6.74545 5.294121 7.757645 5.038461 8.976837 5.081625 Z M 8.976837 5.081625 " stroke="#320096" stroke-width="5.226658" stroke-opacity="1" stroke-miterlimit="4"/><path stroke-linecap="butt" transform="matrix(0.73108, -0.159515, 0.159515, 0.73108, 29.509482, 42.793586)" fill="none" stroke-linejoin="miter" d="M 15.510261 4.548157 C 15.491978 6.125733 15.266903 7.52461 14.824833 8.742563 C 14.383876 9.955416 13.737888 11.005984 12.882881 11.888054 C 13.140948 12.884752 13.267242 13.922159 13.266861 15.001387 L 9.451635 15.002466 C 9.476586 14.275902 9.41882 13.536633 9.27101 12.793747 C 9.119213 12.044647 8.889519 11.358698 8.573953 10.723473 C 8.258388 10.088249 7.873087 9.576729 7.412948 9.187802 C 6.94771 8.797763 6.413568 8.601071 5.799211 8.600602 C 5.189955 8.601246 4.696799 8.755457 4.315756 9.057021 C 3.9438 9.365912 3.754528 9.768094 3.75304 10.26468 C 3.753778 10.751065 3.940446 11.144441 4.31592 11.45612 C 4.696494 11.768912 5.190296 11.930087 5.799553 11.929443 C 6.596223 11.926946 7.401056 11.691133 8.212939 11.227104 C 8.409344 11.649319 8.573755 12.144701 8.702186 12.707036 C 8.830616 13.269371 8.917131 13.827903 8.956631 14.38152 C 7.746645 14.833491 6.660367 15.061327 5.697797 15.065028 C 4.688212 15.063813 3.784807 14.845326 2.981371 14.413553 C 2.189249 13.978906 1.565345 13.409983 1.109661 12.706784 C 0.653976 12.003584 0.425674 11.237792 0.429855 10.41052 C 0.427449 9.784849 0.563865 9.184125 0.835114 8.602135 C 1.102376 8.013931 1.478043 7.492125 1.965452 7.021416 C 2.446649 6.554694 3.009171 6.180521 3.657007 5.905109 C 4.305956 5.624597 5.004702 5.483185 5.757231 5.487087 C 6.895901 5.484408 7.917725 5.72339 8.81139 6.206908 C 9.707281 6.680226 10.475291 7.323337 11.111433 8.130028 C 11.309701 7.564172 11.403089 6.964746 11.38937 6.341951 C 11.376764 5.714054 11.373894 5.114998 11.390962 4.547008 Z M 15.510261 4.548157 " stroke="#320096" stroke-width="5.226658" stroke-opacity="1" stroke-miterlimit="4"/><path stroke-linecap="butt" transform="matrix(0.745746, -0.0615265, 0.0615265, 0.745746, 42.44186, 40.168099)" fill="none" stroke-linejoin="miter" d="M 8.213441 8.49786 C 8.254426 8.255054 8.273312 8.026138 8.275303 7.811542 C 8.272364 7.402732 8.143756 7.056887 7.877786 6.788756 C 7.617447 6.515851 7.209392 6.382662 6.65405 6.383987 C 6.046682 6.381019 5.53006 6.547918 5.120651 6.875566 C 4.706039 7.202784 4.392956 7.632663 4.186605 8.165633 C 3.980254 8.698603 3.879724 9.282208 3.879384 9.921221 C 3.877638 10.95821 4.112001 11.799918 4.572067 12.445488 C 5.038195 13.081082 5.64378 13.550089 6.389251 13.847304 C 7.134293 14.149723 7.92863 14.299067 8.761858 14.294478 C 9.207086 14.294545 9.654031 14.273801 10.11916 14.223129 C 10.584288 14.172456 11.042445 14.079305 11.497975 13.954508 L 11.498835 17.626448 C 10.999915 17.70576 10.512259 17.775526 10.036296 17.830542 C 9.559904 17.890761 9.096493 17.920623 8.640859 17.919698 C 7.414859 17.92331 6.300534 17.716137 5.291394 17.313359 C 4.282253 16.910581 3.412141 16.346418 2.686259 15.621299 C 1.960377 14.89618 1.401735 14.048669 1.009901 13.08397 C 0.6237 12.114497 0.427746 11.061198 0.427243 9.924501 C 0.427065 8.65688 0.684066 7.509999 1.19433 6.467823 C 1.704165 5.430849 2.427035 4.605259 3.347759 3.984562 C 4.273687 3.364294 5.362442 3.056028 6.614456 3.054563 C 7.751153 3.054059 8.728063 3.276084 9.556022 3.716295 C 10.38398 4.156505 10.987093 4.782449 11.380969 5.595413 C 11.770071 6.402746 11.873613 7.36985 11.691596 8.496727 Z M 8.213441 8.49786 " stroke="#320096" stroke-width="5.226658" stroke-opacity="1" stroke-miterlimit="4"/><path stroke-linecap="butt" transform="matrix(0.747338, 0.0375408, -0.0375408, 0.747338, 52.375505, 39.326087)" fill="none" stroke-linejoin="miter" d="M 15.50608 4.550013 C 15.49654 6.129013 15.268761 7.52558 14.827956 8.739454 C 14.387151 9.953327 13.739582 11.0051 12.884724 11.884344 C 13.138606 12.88038 13.269192 13.919198 13.271268 15.00106 L 9.450339 14.999601 C 9.481975 14.276701 9.418717 13.537661 9.271515 12.792383 C 9.119099 12.047367 8.885883 11.358679 8.571865 10.726319 C 8.257586 10.088745 7.871125 9.575016 7.412743 9.190344 C 6.948624 8.795507 6.410775 8.597768 5.799459 8.602342 C 5.187881 8.601702 4.693648 8.751974 4.317023 9.058372 C 3.940397 9.36477 3.756704 9.766014 3.755778 10.267842 C 3.753804 10.748814 3.941072 11.147105 4.317319 11.457499 C 4.693828 11.773107 5.18761 11.926017 5.799188 11.926657 C 6.593771 11.928558 7.397423 11.694793 8.210144 11.225363 C 8.409149 11.649198 8.575324 12.147859 8.702932 12.71118 C 8.830278 13.269287 8.915652 13.824275 8.959317 14.381359 C 7.748518 14.834198 6.662277 15.06125 5.69538 15.062778 C 4.68651 15.061187 3.781867 14.845286 2.986402 14.409597 C 2.191198 13.979122 1.5615 13.409662 1.108259 12.711119 C 0.654495 12.002148 0.428039 11.239944 0.428369 10.414079 C 0.428223 9.78686 0.559992 9.184375 0.833842 8.600888 C 1.102477 8.017663 1.47853 7.491765 1.962001 7.023193 C 2.445471 6.554621 3.012124 6.181182 3.656745 5.903137 C 4.30658 5.624831 5.005196 5.485199 5.757806 5.483982 C 6.897281 5.484239 7.912984 5.725923 8.809868 6.203559 C 9.706751 6.681195 10.475934 7.322052 11.112466 8.131606 C 11.308633 7.562475 11.404168 6.967038 11.388381 6.340604 C 11.372594 5.71417 11.37402 5.118234 11.387183 4.547841 Z M 15.50608 4.550013 " stroke="#320096" stroke-width="5.226658" stroke-opacity="1" stroke-miterlimit="4"/><path stroke-linecap="butt" transform="matrix(0.734714, 0.141836, -0.141836, 0.734714, 65.626395, 40.156433)" fill="none" stroke-linejoin="miter" d="M 9.086287 5.077596 C 10.022048 5.077715 10.750189 5.35185 11.26046 5.901978 C 11.770731 6.452107 12.09442 7.19244 12.220285 8.11983 C 12.352266 9.051355 12.304314 10.097368 12.083534 11.267128 C 11.861764 12.431763 11.483078 13.637324 10.9526 14.882821 C 10.422123 16.128319 9.755766 17.330931 8.955508 18.500909 L 4.587667 18.541299 C 4.995979 17.957389 5.407794 17.309002 5.810882 16.587866 C 6.220085 15.870866 6.594575 15.139301 6.941459 14.402432 C 7.292478 13.659448 7.580822 12.94983 7.804511 12.263327 C 8.037462 11.569719 8.177795 10.947158 8.230635 10.394655 C 8.288601 9.841162 8.23111 9.405658 8.0623 9.082029 C 7.888364 8.759389 7.571008 8.60267 7.102138 8.597484 C 6.262597 8.600057 5.588898 8.910882 5.081041 9.529959 C 4.57831 10.148048 4.313081 10.92232 4.283375 11.842526 C 4.360379 12.268946 4.440351 12.710743 4.531564 13.155687 C 4.623766 13.605756 4.742587 14.056003 4.883889 14.512544 L 1.576982 14.512939 C 0.979753 12.57599 0.615891 10.801341 0.47829 9.17973 C 0.345815 7.55713 0.475382 5.942426 0.877243 4.333639 L 5.199764 4.333898 C 5.019673 4.77805 4.852802 5.2356 4.710391 5.709694 C 4.567981 6.183789 4.450031 6.674428 4.354562 7.17136 C 4.836969 6.530612 5.460836 6.01674 6.2303 5.623627 C 6.995628 5.236629 7.949002 5.052581 9.086287 5.077596 Z M 9.086287 5.077596 " stroke="#320096" stroke-width="5.226658" stroke-opacity="1" stroke-miterlimit="4"/><g clip-path="url(#078429d67f)"><path stroke-linecap="butt" transform="matrix(0.708032, 0.242101, -0.242101, 0.708032, 76.688456, 42.32625)" fill="none" stroke-linejoin="miter" d="M 14.67464 -3.98344 C 15.570159 -2.816597 16.185305 -1.614572 16.520077 -0.377365 C 16.854849 0.859843 16.984774 2.078821 16.91323 3.289451 C 16.846626 4.498391 16.632633 5.647388 16.274629 6.74632 C 15.919875 7.838624 15.48507 8.825891 14.971773 9.696554 C 14.460166 10.572156 13.950662 11.292561 13.435071 11.866088 C 13.593964 12.34691 13.713469 12.857753 13.790207 13.388735 C 13.868633 13.924658 13.907417 14.457585 13.909934 14.997395 L 9.685431 15.001951 C 9.712837 14.275363 9.63457 13.54629 9.444 12.81148 C 9.260059 12.07992 9.002279 11.406711 8.660783 10.79523 C 8.320976 10.188688 7.909402 9.694959 7.421123 9.315731 C 6.939471 8.939753 6.406449 8.75237 5.822056 8.753581 C 5.169943 8.750362 4.647788 8.90132 4.255589 9.206455 C 3.86508 9.51653 3.670049 9.914241 3.668933 10.411157 C 3.669379 10.896505 3.867279 11.297786 4.256003 11.611748 C 4.649667 11.924022 5.170866 12.076828 5.822979 12.080047 C 6.678122 12.080047 7.518224 11.84244 8.340033 11.373855 C 8.553006 11.803084 8.734908 12.270522 8.882488 12.782798 C 9.035007 13.293386 9.128253 13.824241 9.168852 14.378615 C 7.891332 14.837512 6.749028 15.062595 5.738688 15.060492 C 4.673886 15.06046 3.72298 14.844937 2.89091 14.412234 C 2.058839 13.979532 1.400703 13.410116 0.928071 12.705549 C 0.450499 12.002671 0.21184 11.240168 0.215346 10.411411 C 0.215601 9.589283 0.450723 8.824773 0.927339 8.12113 C 1.403955 7.417487 2.054984 6.85282 2.891995 6.42869 C 3.722376 6.00131 4.674908 5.785947 5.73971 5.785979 C 6.931632 5.78668 8.024733 6.030821 9.010694 6.510209 C 9.998343 6.994538 10.850267 7.646651 11.558276 8.474866 C 12.068832 7.676862 12.412113 6.809163 12.579929 5.880086 C 12.752685 4.949321 12.790003 4.009696 12.680314 3.059651 C 12.573875 2.102976 12.340571 1.178648 11.990279 0.283288 C 11.635048 -0.610384 11.173091 -1.428942 10.611037 -2.169138 C 10.048983 -2.909334 9.403722 -3.521771 8.680194 -4.008139 Z M 14.67464 -3.98344 " stroke="#320096" stroke-width="5.226658" stroke-opacity="1" stroke-miterlimit="4"/></g><g clip-path="url(#b087562f99)"><path stroke-linecap="butt" transform="matrix(0.666764, 0.339629, -0.339629, 0.666764, 88.959928, 46.671593)" fill="none" stroke-linejoin="miter" d="M 10.408662 4.294825 C 11.175172 4.707005 11.828546 5.288125 12.366414 6.033534 C 12.908934 6.776573 13.328316 7.59991 13.61517 8.496611 C 13.906676 9.390943 14.055829 10.293341 14.055606 11.201525 C 14.056485 12.882471 13.904747 14.447825 13.605133 15.906888 C 13.31017 17.363582 12.831789 18.644212 12.174642 19.746407 C 11.522146 20.846234 10.662452 21.711807 9.597753 22.324433 C 8.530772 22.944081 7.230355 23.254962 5.696501 23.257077 C 4.34704 23.253145 3.145297 23.021649 2.091274 22.562588 C 1.034881 22.098875 0.213002 21.462981 -0.383752 20.647973 C -0.982788 19.839985 -1.281402 18.931698 -1.279595 17.923113 C -1.280854 16.816495 -1.054287 15.892614 -0.599806 15.163142 C -0.143043 14.426648 0.473705 13.854722 1.255003 13.433319 C 2.040953 13.009546 2.940023 12.727343 3.959148 12.577319 C 4.973622 12.429665 6.051894 12.384259 7.196335 12.445753 C 8.343059 12.500226 9.492675 12.629387 10.64527 12.844907 C 10.669154 12.604259 10.693039 12.363611 10.70525 12.12305 C 10.719744 11.875468 10.73652 11.620866 10.748558 11.356959 C 10.763939 10.915594 10.734912 10.467557 10.666129 10.010478 C 10.597346 9.553398 10.496001 9.112905 10.366746 8.686628 C 9.994688 9.198361 9.48923 9.666732 8.852742 10.096393 C 8.213885 10.521401 7.459973 10.858552 6.593377 11.112497 C 5.726694 11.354769 4.76804 11.47399 3.712677 11.460859 C 2.704091 11.459051 1.901239 11.182553 1.30412 10.631363 C 0.704632 10.075522 0.313857 9.331349 0.127143 8.401215 C -0.0595708 7.471081 -0.0346795 6.427304 0.199622 5.288576 C 0.436206 4.142827 0.878158 2.986207 1.537152 1.818627 L 5.82127 1.821657 C 5.366964 2.574474 4.957066 3.333964 4.591577 4.100126 C 4.233108 4.86857 3.972236 5.575585 3.818265 6.21643 C 3.661924 6.852625 3.656456 7.370959 3.808794 7.762044 C 3.954112 8.150847 4.310424 8.344297 4.861407 8.344853 C 5.715879 8.343142 6.403518 8.197927 6.921956 7.904559 C 7.442764 7.615842 7.769004 7.221183 7.898393 6.727604 C 8.034717 6.224635 7.953564 5.674262 7.657303 5.081137 L 7.743663 5.078157 Z M 14.543081 13.95278 C 15.598777 14.323112 16.681059 14.814647 17.78984 15.415713 C 18.90099 16.021431 20.029337 16.741419 21.179618 17.58498 L 21.178876 23.426297 C 19.643954 22.03463 18.274104 20.863522 17.076348 19.915256 C 15.87394 18.96936 14.768591 18.202507 13.760212 17.603026 C 13.956745 17.034237 14.120456 16.447015 14.246692 15.843731 C 14.377579 15.238078 14.473275 14.60934 14.543081 13.95278 Z M 5.720197 19.864643 C 6.768452 19.863819 7.636546 19.4978 8.317458 18.764303 C 8.998371 18.030805 9.542381 17.097549 9.940099 15.957602 C 9.142422 15.748769 8.303141 15.59628 7.434017 15.511718 C 6.560242 15.429525 5.740788 15.430975 4.978025 15.520718 C 4.217632 15.615113 3.600551 15.82984 3.124501 16.17192 C 2.64845 16.514 2.411637 17.003711 2.40941 17.643424 C 2.414204 18.285419 2.700639 18.813247 3.278105 19.233843 C 3.85092 19.656808 4.664921 19.863184 5.720197 19.864643 Z M 5.720197 19.864643 " stroke="#320096" stroke-width="5.226658" stroke-opacity="1" stroke-miterlimit="4"/></g><g fill="#ffffff" fill-opacity="1"><g transform="translate(14.807257, 61.405023)"><g><path d="M 6.359375 -8.03125 C 6.410156 -7.957031 6.457031 -7.882812 6.5 -7.8125 C 6.539062 -7.738281 6.578125 -7.664062 6.609375 -7.59375 C 6.941406 -6.945312 7.066406 -6.289062 6.984375 -5.625 C 6.910156 -4.957031 6.664062 -4.332031 6.25 -3.75 C 5.84375 -3.175781 5.304688 -2.71875 4.640625 -2.375 C 3.554688 -1.8125 2.398438 -1.691406 1.171875 -2.015625 C 1.210938 -1.660156 1.289062 -1.3125 1.40625 -0.96875 C 1.519531 -0.625 1.660156 -0.289062 1.828125 0.03125 C 2.140625 0.625 2.53125 1.175781 3 1.6875 C 3.46875 2.195312 3.976562 2.640625 4.53125 3.015625 C 5.09375 3.390625 5.671875 3.679688 6.265625 3.890625 L 2.84375 5.65625 C 2.195312 5.207031 1.640625 4.6875 1.171875 4.09375 C 0.703125 3.507812 0.304688 2.90625 -0.015625 2.28125 C -0.359375 1.601562 -0.628906 0.925781 -0.828125 0.25 C -1.035156 -0.414062 -1.175781 -1.054688 -1.25 -1.671875 C -1.332031 -2.285156 -1.363281 -2.828125 -1.34375 -3.296875 C -1.757812 -3.640625 -2.160156 -4.035156 -2.546875 -4.484375 C -2.929688 -4.929688 -3.300781 -5.4375 -3.65625 -6 L -1.125 -7.125 C -0.84375 -6.707031 -0.484375 -6.304688 -0.046875 -5.921875 C 0.378906 -5.546875 0.832031 -5.21875 1.3125 -4.9375 C 1.800781 -4.65625 2.269531 -4.46875 2.71875 -4.375 C 3.175781 -4.289062 3.566406 -4.332031 3.890625 -4.5 C 4.222656 -4.664062 4.472656 -4.929688 4.640625 -5.296875 C 4.804688 -5.671875 4.796875 -6.035156 4.609375 -6.390625 C 4.453125 -6.703125 4.222656 -6.898438 3.921875 -6.984375 C 3.617188 -7.078125 3.304688 -7.039062 2.984375 -6.875 C 2.703125 -6.726562 2.4375 -6.503906 2.1875 -6.203125 C 1.945312 -5.910156 1.753906 -5.566406 1.609375 -5.171875 C 1.296875 -5.335938 0.988281 -5.539062 0.6875 -5.78125 C 0.382812 -6.019531 0.0976562 -6.300781 -0.171875 -6.625 C 0.109375 -7.09375 0.4375 -7.53125 0.8125 -7.9375 C 1.1875 -8.351562 1.59375 -8.675781 2.03125 -8.90625 C 2.5625 -9.175781 3.097656 -9.316406 3.640625 -9.328125 C 4.179688 -9.335938 4.691406 -9.226562 5.171875 -9 C 5.648438 -8.78125 6.046875 -8.457031 6.359375 -8.03125 Z M 6.359375 -8.03125 "/></g></g></g><g fill="#ffffff" fill-opacity="1"><g transform="translate(23.142436, 57.091307)"><g><path d="M 3.734375 -9.296875 C 4.398438 -9.535156 5.003906 -9.507812 5.546875 -9.21875 C 6.097656 -8.925781 6.5625 -8.4375 6.9375 -7.75 C 7.3125 -7.0625 7.578125 -6.25 7.734375 -5.3125 L 4.875 -4.265625 C 4.8125 -4.742188 4.722656 -5.15625 4.609375 -5.5 C 4.492188 -5.851562 4.335938 -6.109375 4.140625 -6.265625 C 3.953125 -6.429688 3.707031 -6.457031 3.40625 -6.34375 C 2.976562 -6.1875 2.664062 -5.898438 2.46875 -5.484375 C 2.269531 -5.066406 2.171875 -4.582031 2.171875 -4.03125 C 2.179688 -3.476562 2.304688 -2.9375 2.546875 -2.40625 C 2.828125 -1.945312 3.15625 -1.484375 3.53125 -1.015625 L 1.3125 -0.203125 C 0.351562 -1.378906 -0.421875 -2.5625 -1.015625 -3.75 C -1.609375 -4.945312 -1.988281 -6.148438 -2.15625 -7.359375 L 0.75 -8.4375 C 0.738281 -8.039062 0.757812 -7.640625 0.8125 -7.234375 C 0.863281 -6.835938 0.9375 -6.425781 1.03125 -6 C 1.132812 -6.707031 1.394531 -7.359375 1.8125 -7.953125 C 2.226562 -8.554688 2.867188 -9.003906 3.734375 -9.296875 Z M 3.734375 -9.296875 "/></g></g></g><g fill="#ffffff" fill-opacity="1"><g transform="translate(31.902208, 53.759782)"><g><path d="M 9.65625 -10.109375 C 9.90625 -8.953125 9.960938 -7.894531 9.828125 -6.9375 C 9.703125 -5.976562 9.398438 -5.113281 8.921875 -4.34375 C 9.253906 -3.644531 9.507812 -2.898438 9.6875 -2.109375 L 6.90625 -1.5 C 6.8125 -2.039062 6.648438 -2.566406 6.421875 -3.078125 C 6.191406 -3.597656 5.910156 -4.066406 5.578125 -4.484375 C 5.253906 -4.898438 4.894531 -5.210938 4.5 -5.421875 C 4.101562 -5.640625 3.679688 -5.695312 3.234375 -5.59375 C 2.785156 -5.5 2.445312 -5.304688 2.21875 -5.015625 C 1.988281 -4.734375 1.914062 -4.414062 2 -4.0625 C 2.070312 -3.707031 2.269531 -3.445312 2.59375 -3.28125 C 2.925781 -3.113281 3.316406 -3.078125 3.765625 -3.171875 C 4.335938 -3.296875 4.878906 -3.597656 5.390625 -4.078125 C 5.609375 -3.796875 5.804688 -3.457031 5.984375 -3.0625 C 6.171875 -2.664062 6.328125 -2.269531 6.453125 -1.875 C 5.640625 -1.351562 4.882812 -1.015625 4.1875 -0.859375 C 3.4375 -0.703125 2.734375 -0.71875 2.078125 -0.90625 C 1.429688 -1.09375 0.882812 -1.40625 0.4375 -1.84375 C 0 -2.28125 -0.285156 -2.804688 -0.421875 -3.421875 C -0.515625 -3.867188 -0.507812 -4.328125 -0.40625 -4.796875 C -0.300781 -5.273438 -0.113281 -5.722656 0.15625 -6.140625 C 0.4375 -6.554688 0.789062 -6.914062 1.21875 -7.21875 C 1.65625 -7.53125 2.148438 -7.75 2.703125 -7.875 C 3.523438 -8.050781 4.300781 -8.035156 5.03125 -7.828125 C 5.769531 -7.628906 6.4375 -7.28125 7.03125 -6.78125 C 7.070312 -7.226562 7.035156 -7.675781 6.921875 -8.125 C 6.816406 -8.582031 6.722656 -9.023438 6.640625 -9.453125 Z M 9.65625 -10.109375 "/></g></g></g><g fill="#ffffff" fill-opacity="1"><g transform="translate(43.364757, 51.354289)"><g><path d="M 5.71875 -5.34375 C 5.738281 -5.539062 5.742188 -5.71875 5.734375 -5.875 C 5.703125 -6.1875 5.578125 -6.429688 5.359375 -6.609375 C 5.148438 -6.785156 4.84375 -6.859375 4.4375 -6.828125 C 3.976562 -6.796875 3.601562 -6.644531 3.3125 -6.375 C 3.019531 -6.113281 2.8125 -5.773438 2.6875 -5.359375 C 2.570312 -4.941406 2.535156 -4.492188 2.578125 -4.015625 C 2.640625 -3.234375 2.863281 -2.625 3.25 -2.1875 C 3.632812 -1.75 4.113281 -1.441406 4.6875 -1.265625 C 5.257812 -1.085938 5.863281 -1.023438 6.5 -1.078125 C 6.8125 -1.097656 7.140625 -1.140625 7.484375 -1.203125 C 7.835938 -1.273438 8.175781 -1.367188 8.5 -1.484375 L 8.71875 1.265625 C 8.363281 1.359375 8.007812 1.4375 7.65625 1.5 C 7.300781 1.570312 6.960938 1.625 6.640625 1.65625 C 5.722656 1.726562 4.875 1.644531 4.09375 1.40625 C 3.3125 1.164062 2.628906 0.796875 2.046875 0.296875 C 1.460938 -0.191406 0.992188 -0.785156 0.640625 -1.484375 C 0.285156 -2.179688 0.0703125 -2.957031 0 -3.8125 C -0.0703125 -4.757812 0.046875 -5.632812 0.359375 -6.4375 C 0.679688 -7.238281 1.164062 -7.898438 1.8125 -8.421875 C 2.46875 -8.941406 3.265625 -9.238281 4.203125 -9.3125 C 5.046875 -9.382812 5.785156 -9.28125 6.421875 -9 C 7.066406 -8.71875 7.5625 -8.285156 7.90625 -7.703125 C 8.25 -7.128906 8.382812 -6.414062 8.3125 -5.5625 Z M 5.71875 -5.34375 "/></g></g></g><g fill="#ffffff" fill-opacity="1"><g transform="translate(51.812392, 50.536149)"><g><path d="M 11.96875 -7.21875 C 11.894531 -6.050781 11.671875 -5.019531 11.296875 -4.125 C 10.929688 -3.226562 10.410156 -2.46875 9.734375 -1.84375 C 9.890625 -1.09375 9.945312 -0.3125 9.90625 0.5 L 7.046875 0.359375 C 7.097656 -0.179688 7.082031 -0.734375 7 -1.296875 C 6.914062 -1.859375 6.769531 -2.382812 6.5625 -2.875 C 6.363281 -3.363281 6.097656 -3.757812 5.765625 -4.0625 C 5.429688 -4.375 5.035156 -4.539062 4.578125 -4.5625 C 4.117188 -4.582031 3.742188 -4.484375 3.453125 -4.265625 C 3.160156 -4.054688 3.003906 -3.769531 2.984375 -3.40625 C 2.972656 -3.039062 3.097656 -2.734375 3.359375 -2.484375 C 3.628906 -2.234375 3.992188 -2.097656 4.453125 -2.078125 C 5.046875 -2.046875 5.65625 -2.191406 6.28125 -2.515625 C 6.40625 -2.191406 6.503906 -1.816406 6.578125 -1.390625 C 6.648438 -0.960938 6.695312 -0.539062 6.71875 -0.125 C 5.800781 0.164062 4.984375 0.296875 4.265625 0.265625 C 3.503906 0.222656 2.832031 0.0234375 2.25 -0.328125 C 1.675781 -0.679688 1.226562 -1.128906 0.90625 -1.671875 C 0.59375 -2.210938 0.453125 -2.796875 0.484375 -3.421875 C 0.503906 -3.878906 0.625 -4.320312 0.84375 -4.75 C 1.070312 -5.175781 1.378906 -5.554688 1.765625 -5.890625 C 2.148438 -6.222656 2.585938 -6.476562 3.078125 -6.65625 C 3.578125 -6.832031 4.109375 -6.90625 4.671875 -6.875 C 5.515625 -6.832031 6.257812 -6.617188 6.90625 -6.234375 C 7.550781 -5.859375 8.101562 -5.351562 8.5625 -4.71875 C 8.726562 -5.144531 8.816406 -5.585938 8.828125 -6.046875 C 8.835938 -6.503906 8.859375 -6.945312 8.890625 -7.375 Z M 11.96875 -7.21875 "/></g></g></g><g fill="#ffffff" fill-opacity="1"><g transform="translate(63.498848, 51.177146)"><g><path d="M 8.078125 -6 C 8.765625 -5.863281 9.257812 -5.554688 9.5625 -5.078125 C 9.863281 -4.609375 9.992188 -4.019531 9.953125 -3.3125 C 9.910156 -2.601562 9.726562 -1.835938 9.40625 -1.015625 C 9.082031 -0.191406 8.632812 0.632812 8.0625 1.46875 C 7.488281 2.300781 6.828125 3.085938 6.078125 3.828125 L 2.875 3.25 C 3.25 2.882812 3.632812 2.46875 4.03125 2 C 4.425781 1.53125 4.804688 1.046875 5.171875 0.546875 C 5.546875 0.046875 5.863281 -0.4375 6.125 -0.90625 C 6.382812 -1.382812 6.570312 -1.820312 6.6875 -2.21875 C 6.8125 -2.613281 6.832031 -2.9375 6.75 -3.1875 C 6.675781 -3.445312 6.46875 -3.613281 6.125 -3.6875 C 5.507812 -3.800781 4.96875 -3.664062 4.5 -3.28125 C 4.039062 -2.90625 3.738281 -2.378906 3.59375 -1.703125 C 3.582031 -1.378906 3.582031 -1.046875 3.59375 -0.703125 C 3.601562 -0.367188 3.625 -0.0234375 3.65625 0.328125 L 1.234375 -0.140625 C 1.066406 -1.640625 1.046875 -2.992188 1.171875 -4.203125 C 1.304688 -5.421875 1.632812 -6.585938 2.15625 -7.703125 L 5.328125 -7.09375 C 5.140625 -6.789062 4.957031 -6.472656 4.78125 -6.140625 C 4.601562 -5.816406 4.441406 -5.484375 4.296875 -5.140625 C 4.753906 -5.535156 5.289062 -5.820312 5.90625 -6 C 6.519531 -6.175781 7.242188 -6.175781 8.078125 -6 Z M 8.078125 -6 "/></g></g></g><g fill="#ffffff" fill-opacity="1"><g transform="translate(73.056938, 52.946733)"><g><path d="M 14.96875 -9.890625 C 15.332031 -8.847656 15.476562 -7.84375 15.40625 -6.875 C 15.34375 -5.914062 15.140625 -5.019531 14.796875 -4.1875 C 14.460938 -3.363281 14.035156 -2.601562 13.515625 -1.90625 C 12.992188 -1.21875 12.445312 -0.625 11.875 -0.125 C 11.300781 0.363281 10.765625 0.75 10.265625 1.03125 C 10.253906 1.414062 10.210938 1.800781 10.140625 2.1875 C 10.078125 2.582031 9.976562 2.972656 9.84375 3.359375 L 6.859375 2.34375 C 7.054688 1.84375 7.175781 1.304688 7.21875 0.734375 C 7.257812 0.171875 7.234375 -0.363281 7.140625 -0.875 C 7.046875 -1.394531 6.875 -1.84375 6.625 -2.21875 C 6.382812 -2.601562 6.054688 -2.867188 5.640625 -3.015625 C 5.179688 -3.171875 4.773438 -3.1875 4.421875 -3.0625 C 4.078125 -2.9375 3.84375 -2.703125 3.71875 -2.359375 C 3.601562 -2.015625 3.644531 -1.679688 3.84375 -1.359375 C 4.039062 -1.046875 4.367188 -0.8125 4.828125 -0.65625 C 5.429688 -0.445312 6.082031 -0.414062 6.78125 -0.5625 C 6.832031 -0.195312 6.847656 0.179688 6.828125 0.578125 C 6.804688 0.984375 6.742188 1.382812 6.640625 1.78125 C 5.617188 1.789062 4.753906 1.675781 4.046875 1.4375 C 3.285156 1.175781 2.664062 0.789062 2.1875 0.28125 C 1.707031 -0.21875 1.378906 -0.773438 1.203125 -1.390625 C 1.035156 -2.003906 1.050781 -2.609375 1.25 -3.203125 C 1.445312 -3.785156 1.800781 -4.265625 2.3125 -4.640625 C 2.832031 -5.023438 3.4375 -5.265625 4.125 -5.359375 C 4.8125 -5.460938 5.535156 -5.382812 6.296875 -5.125 C 7.140625 -4.84375 7.847656 -4.410156 8.421875 -3.828125 C 9.003906 -3.253906 9.445312 -2.582031 9.75 -1.8125 C 10.3125 -2.257812 10.765625 -2.789062 11.109375 -3.40625 C 11.460938 -4.019531 11.710938 -4.675781 11.859375 -5.375 C 12.015625 -6.082031 12.078125 -6.796875 12.046875 -7.515625 C 12.015625 -8.242188 11.890625 -8.9375 11.671875 -9.59375 C 11.453125 -10.25 11.144531 -10.832031 10.75 -11.34375 Z M 14.96875 -9.890625 "/></g></g></g><g fill="#ffffff" fill-opacity="1"><g transform="translate(83.865493, 56.67306)"><g><path d="M 10.578125 -3.609375 C 10.941406 -3.066406 11.175781 -2.457031 11.28125 -1.78125 C 11.394531 -1.101562 11.394531 -0.414062 11.28125 0.28125 C 11.175781 0.976562 10.972656 1.628906 10.671875 2.234375 C 10.097656 3.359375 9.460938 4.351562 8.765625 5.21875 C 8.066406 6.09375 7.3125 6.785156 6.5 7.296875 C 5.695312 7.804688 4.832031 8.085938 3.90625 8.140625 C 2.988281 8.191406 2.019531 7.957031 1 7.4375 C 0.101562 6.976562 -0.613281 6.414062 -1.15625 5.75 C -1.707031 5.082031 -2.039062 4.375 -2.15625 3.625 C -2.28125 2.882812 -2.175781 2.179688 -1.84375 1.515625 C -1.457031 0.765625 -0.988281 0.226562 -0.4375 -0.09375 C 0.101562 -0.425781 0.703125 -0.597656 1.359375 -0.609375 C 2.023438 -0.628906 2.722656 -0.515625 3.453125 -0.265625 C 4.179688 -0.0234375 4.914062 0.304688 5.65625 0.734375 C 6.40625 1.171875 7.128906 1.648438 7.828125 2.171875 C 7.921875 2.023438 8.015625 1.875 8.109375 1.71875 C 8.203125 1.5625 8.300781 1.394531 8.40625 1.21875 C 8.5625 0.925781 8.691406 0.613281 8.796875 0.28125 C 8.898438 -0.0390625 8.984375 -0.363281 9.046875 -0.6875 C 8.628906 -0.46875 8.132812 -0.320312 7.5625 -0.25 C 7 -0.1875 6.378906 -0.21875 5.703125 -0.34375 C 5.035156 -0.476562 4.363281 -0.726562 3.6875 -1.09375 C 3.007812 -1.4375 2.5625 -1.894531 2.34375 -2.46875 C 2.132812 -3.039062 2.128906 -3.664062 2.328125 -4.34375 C 2.523438 -5.03125 2.894531 -5.710938 3.4375 -6.390625 C 3.976562 -7.078125 4.664062 -7.695312 5.5 -8.25 L 8.359375 -6.796875 C 7.796875 -6.453125 7.265625 -6.085938 6.765625 -5.703125 C 6.265625 -5.316406 5.851562 -4.9375 5.53125 -4.5625 C 5.207031 -4.1875 5.03125 -3.84375 5 -3.53125 C 4.96875 -3.21875 5.140625 -2.96875 5.515625 -2.78125 C 6.078125 -2.5 6.578125 -2.363281 7.015625 -2.375 C 7.460938 -2.394531 7.816406 -2.546875 8.078125 -2.828125 C 8.335938 -3.117188 8.472656 -3.507812 8.484375 -4 L 8.546875 -3.984375 Z M 10.046875 4.234375 C 10.617188 4.847656 11.171875 5.539062 11.703125 6.3125 C 12.242188 7.09375 12.757812 7.957031 13.25 8.90625 L 11.265625 12.796875 C 10.710938 11.347656 10.191406 10.101562 9.703125 9.0625 C 9.222656 8.03125 8.75 7.144531 8.28125 6.40625 C 8.613281 6.09375 8.921875 5.753906 9.203125 5.390625 C 9.492188 5.035156 9.773438 4.648438 10.046875 4.234375 Z M 2.15625 5.1875 C 2.851562 5.539062 3.550781 5.585938 4.25 5.328125 C 4.957031 5.078125 5.640625 4.640625 6.296875 4.015625 C 5.835938 3.609375 5.332031 3.222656 4.78125 2.859375 C 4.226562 2.503906 3.679688 2.234375 3.140625 2.046875 C 2.597656 1.859375 2.109375 1.789062 1.671875 1.84375 C 1.234375 1.90625 0.90625 2.148438 0.6875 2.578125 C 0.46875 3.003906 0.476562 3.457031 0.71875 3.9375 C 0.96875 4.414062 1.445312 4.832031 2.15625 5.1875 Z M 2.15625 5.1875 "/></g></g></g><g clip-path="url(#b966364243)"><path fill="#320096" d="M 79.164062 81.183594 C 75.695312 84.847656 71.746094 87.558594 67.472656 89.355469 C 63.199219 91.15625 58.65625 92.03125 54.089844 92.042969 C 49.523438 92.03125 44.972656 91.160156 40.707031 89.355469 C 36.441406 87.550781 32.480469 84.851562 29.015625 81.183594 L 29.015625 81.179688 C 28.878906 81.035156 28.722656 81.015625 28.550781 81.117188 C 28.378906 81.222656 28.328125 81.371094 28.394531 81.558594 C 30.121094 86.488281 33.910156 90.726562 38.519531 93.550781 C 43.144531 96.398438 48.632812 97.871094 54.089844 97.875 C 59.546875 97.878906 65.039062 96.398438 69.664062 93.550781 C 74.273438 90.722656 78.0625 86.492188 79.789062 81.558594 C 79.855469 81.371094 79.804688 81.222656 79.632812 81.117188 C 79.457031 81.011719 79.304688 81.035156 79.167969 81.183594 Z M 79.164062 81.183594 " fill-opacity="1" fill-rule="nonzero"/></g><g clip-path="url(#9709248943)"><path fill="#320096" d="M 30.636719 80.179688 C 30.980469 80.097656 31.335938 80.039062 31.714844 79.902344 L 31.769531 79.882812 C 31.925781 79.828125 32.007812 79.71875 32.023438 79.554688 C 32.039062 79.390625 31.976562 79.269531 31.835938 79.183594 C 31.476562 78.972656 31.097656 78.804688 30.703125 78.675781 C 30.300781 78.601562 29.886719 78.46875 29.453125 78.480469 C 28.59375 78.433594 27.695312 78.660156 26.890625 79.074219 C 26.070312 79.5 25.433594 80.113281 24.972656 80.917969 C 24.539062 81.683594 24.304688 82.519531 24.40625 83.414062 C 24.421875 83.574219 24.507812 83.679688 24.660156 83.734375 C 24.8125 83.785156 24.945312 83.753906 25.058594 83.640625 L 25.109375 83.585938 C 25.625 83.0625 26.089844 82.554688 26.558594 82.152344 C 27.003906 81.757812 27.484375 81.417969 28.003906 81.132812 C 28.511719 80.871094 29.042969 80.617188 29.664062 80.453125 C 29.96875 80.335938 30.304688 80.289062 30.636719 80.179688 Z M 30.636719 80.179688 " fill-opacity="1" fill-rule="nonzero"/></g><g clip-path="url(#bfde11944a)"><path fill="#320096" d="M 83.167969 80.917969 C 82.707031 80.113281 82.066406 79.5 81.25 79.074219 C 80.445312 78.660156 79.542969 78.433594 78.683594 78.480469 C 78.253906 78.46875 77.839844 78.601562 77.433594 78.675781 C 77.039062 78.804688 76.660156 78.976562 76.300781 79.183594 C 76.160156 79.269531 76.097656 79.390625 76.113281 79.554688 C 76.128906 79.71875 76.214844 79.828125 76.371094 79.882812 L 76.421875 79.902344 C 76.804688 80.039062 77.15625 80.097656 77.5 80.179688 C 77.835938 80.289062 78.167969 80.335938 78.46875 80.453125 C 79.09375 80.617188 79.621094 80.871094 80.132812 81.132812 C 80.652344 81.417969 81.132812 81.757812 81.574219 82.152344 C 82.046875 82.554688 82.511719 83.0625 83.023438 83.585938 L 83.078125 83.640625 C 83.191406 83.753906 83.324219 83.785156 83.476562 83.734375 C 83.628906 83.679688 83.710938 83.574219 83.730469 83.414062 C 83.832031 82.519531 83.601562 81.683594 83.167969 80.917969 Z M 83.167969 80.917969 " fill-opacity="1" fill-rule="nonzero"/></g></svg>